<svg width="20" height="12" viewBox="0 0 20 12" fill="none" xmlns="http://www.w3.org/2000/svg">
<path fill-rule="evenodd" clip-rule="evenodd" d="M3.33333 0C1.49238 0 0 1.53502 0 3.42857V8.57143C0 10.465 1.49238 12 3.33333 12H16.6667C18.5076 12 20 10.465 20 8.57143V3.42857C20 1.53502 18.5076 0 16.6667 0H3.33333ZM2.5 8.57143V3.42857H5.47376V4.19101H3.3928V5.72308H5.03071V6.46394H3.3928V8.57143H2.5ZM6.19299 8.57143V3.42857H7.80405C8.85796 3.42857 9.59636 3.88891 9.59636 4.93906V4.96783C9.59636 5.78062 9.11975 6.17622 8.52903 6.34885L9.8783 8.57143H8.91166L7.65637 6.49271H7.08578V8.57143H6.19299ZM7.08578 5.80939H7.80405C8.41491 5.80939 8.71699 5.53606 8.71699 4.98941V4.96064C8.71699 4.36364 8.37464 4.16943 7.80405 4.16943H7.08578V5.80939ZM10.5284 3.42857V8.57143H13.6431V7.81618H11.4212V6.31289H13.1128V5.59361H11.4212V4.18382H13.529V3.42857H10.5284ZM14.3853 8.57143V3.42857H17.3859V4.18382H15.2781V5.59361H16.9697V6.31289H15.2781V7.81618H17.5V8.57143H14.3853Z" fill="#F2F2F2"/>
</svg>
