<svg width="300" height="255" fill="none" xmlns="http://www.w3.org/2000/svg"><g clip-path="url(#clip0)"><path d="M212.984 20.133c31.031 7.679 56.551 41.317 56.155 74.484-.388 33.095-26.694 65.718-48.707 97.113-21.951 31.399-39.484 61.59-61.675 63.19-22.219 1.576-49.061-25.472-71.272-43.413-22.28-17.937-39.879-26.776-55.038-42.541C17.288 153.2 4.631 130.5 7.595 110.175c2.964-20.325 21.555-38.262 41-48.049 19.511-9.854 39.81-11.554 68.269-21.544 28.46-9.99 65.058-28.184 96.12-20.45z" fill="#F8F8F8"/><path d="M197.278 173.629l-40.569-82.583c-1.238-.744-6.207-4.036-6.207-4.036M153.799 97.585c-.485-1.652-1.939-5.055-1.939-5.055-.888-.056-7.071-3.336-7.071-3.336M143.02 89.498l19.224-8.087" stroke="#DFDFDF" stroke-width="5" stroke-linecap="round" stroke-linejoin="round"/><path d="M4.942 215.646L0 220.353l11.862 16.038 3.67-3.348-5.649-14.269-4.941-3.128zM100.724 201.008l-4.084 7.759 10.139 16.278 4.271-1.136-2.801-21.245-7.525-1.656z" fill="#000"/><path d="M146.949 91.046c3.334 0 6.036-2.08 6.036-4.644s-2.702-4.643-6.036-4.643c-3.333 0-6.035 2.079-6.035 4.644 0 2.564 2.702 4.643 6.035 4.643z" fill="#D37C59"/><path d="M66.403 91.306c-2.715 4-62.384 124.812-62.384 124.812l6.749 4.247 78.742-87.858-23.107-41.201z" fill="#56CAD8"/><path d="M117.811 61.99c1.551 1.368 6.097 6.687 7.583 7.655 1.486.968 18.526 11.926 21.722 12.894 3.196.968-3.596 3.847-3.596 3.847s-22.199-5.075-23.84-6.203c-1.64-1.127-11.365-9.198-11.365-11.362 0-2.163 9.496-6.83 9.496-6.83z" fill="#D37C59"/><path d="M104.805 51.592c4.953-5.54 14.627 7.599 14.418 9.53-.21 1.932-7.052 10.035-11.389 10.035-1.299 0-6.509-15.674-3.029-19.565z" fill="#FCC486"/><path d="M65.635 92.522c-1.163 1.6-6.206 14.397-6.206 18.797 0 29.995 43.374 37.778 49.604 37.778-.9 4.187-10.442 51.747-9.992 52.791.45 1.044 8.366 3.176 9.992 2.9 6.206-3.484 26.241-51.992 24.736-58.891-2.114-9.666-35.299-37.938-40.093-40.753-4.794-2.816-28.04-12.623-28.04-12.623z" fill="#74D5DE"/><path d="M94.289 39.194c33.386 0 7.521 64.702 1.648 68.209-3.879 2.312-27.928-6.479-30.504-15.297-.88-3.012 10.408-52.912 28.856-52.912z" fill="#FED385"/><path d="M141.868 93.233c3.333 0 6.035-2.079 6.035-4.643 0-2.564-2.702-4.643-6.035-4.643s-6.036 2.079-6.036 4.643c0 2.564 2.703 4.643 6.036 4.643z" fill="#DE8E68"/><path d="M83.633 69.07c.082 3.263 1.14 18.24 2.456 18.692 15.903 5.471 43.444 3.06 48.199 2.732 4.756-.328 7.805-3.78 7.568-4.6-.236-.82-15.194-7.106-41.159-7.846-.481-3.024.671-12.162-.516-12.978-1.187-.816-16.547 4-16.547 4z" fill="#DE8E68"/><path d="M88.052 41.965c13.812-2.911 16.291 23.677 14.965 25.636-1.327 1.96-18.926 4.732-21.222 3.02-2.296-1.712-4.216-26.452 6.257-28.656z" fill="#FED892"/><path d="M97.45 22.66c-.636 2.504-4.976 16.838-4.709 17.598.268.76 6.242 4.111 8.534 3.743.089-1.092 1.063-6.939 3.057-10.454 1.993-3.516-6.882-10.887-6.882-10.887z" fill="#D37C59"/><path d="M115.138 22.732c.747-7.625-2.631-14.221-7.545-14.733-4.914-.512-9.503 5.255-10.25 12.88-.747 7.625 2.63 14.221 7.545 14.733 4.914.512 9.503-5.255 10.25-12.88z" fill="#DE8E68"/><path d="M96.484 22.66c-1.016-.576-2.944-3.967-2.944-7.118 0-4.932 4.767-7.74 7.983-9.199C103.955 5.219 106.023 0 111.562 0c4.418 0 4.713 4.587 6.745 4.763 5.268.452 8.224.656 8.224 4.604 0 2.9-3.608 10.798-10.966 10.798 0-1.464-.477-5.1-1.265-6.847-4.422.228-8.021 6.087-14.154 6.063-1.315-.024-3.662 3.28-3.662 3.28z" fill="#FD8369"/><path d="M98.8 25.116c1.504 0 2.723-1.535 2.723-3.427 0-1.893-1.219-3.428-2.723-3.428-1.504 0-2.723 1.535-2.723 3.428 0 1.892 1.22 3.427 2.723 3.427z" fill="#DE8E68"/><path d="M294.845 204.792H168.113V176.44c6.931-.632 105.464-10.23 105.464-10.23v-61.642l-119.778-6.983 14.314 78.863M178.299 220.457c3.247 0 5.88-2.714 5.88-6.063 0-3.348-2.633-6.063-5.88-6.063-3.248 0-5.881 2.715-5.881 6.063 0 3.349 2.633 6.063 5.881 6.063zM293.15 220.457c3.247 0 5.88-2.714 5.88-6.063 0-3.348-2.633-6.063-5.88-6.063-3.248 0-5.881 2.715-5.881 6.063 0 3.349 2.633 6.063 5.881 6.063zM158.477 123.353h115.1M161.658 140.878h111.919M133.288 93.59l9.732-4.092M171.398 140.878c-1.261-3.676-14.635-43.13-14.635-43.13" stroke="#DFDFDF" stroke-width="5" stroke-linecap="round" stroke-linejoin="round"/></g><defs><clipPath id="clip0"><path fill="#fff" d="M0 0h300v255H0z"/></clipPath></defs></svg>